<svg width="160" height="49" viewBox="0 0 160 49" fill="none" xmlns="http://www.w3.org/2000/svg">
<path d="M1.24 18.68C1.10667 18.52 0.986667 18.1867 0.88 17.68C0.773334 17.1467 0.72 16.6933 0.72 16.32C1.41333 16.3733 2.08 16.4267 2.72 16.48C3.36 16.5067 3.94667 16.5333 4.48 16.56C4.88 15.76 5.30667 14.9733 5.76 14.2C6.24 13.4 6.69333 12.68 7.12 12.04C7.57333 11.3733 7.98667 10.8133 8.36 10.36C8.76 9.90667 9.06667 9.61333 9.28 9.48C9.54667 9.48 9.88 9.53333 10.28 9.64C10.7067 9.72 11.1333 9.84 11.56 10C11.9867 10.1333 12.3733 10.28 12.72 10.44C13.0667 10.6 13.3067 10.76 13.44 10.92C12.64 11.9333 11.9467 12.88 11.36 13.76C10.8 14.6133 10.1867 15.6 9.52 16.72C10.0533 16.72 10.5867 16.7067 11.12 16.68C11.68 16.6533 12.24 16.6133 12.8 16.56C12.9333 16.6933 13.04 16.8667 13.12 17.08C13.2 17.2667 13.24 17.4667 13.24 17.68C11.9333 18.16 10.3467 18.4267 8.48 18.48C7.81333 19.76 7.21333 21.04 6.68 22.32C6.17333 23.5733 5.73333 24.7867 5.36 25.96C5.01333 27.1333 4.73333 28.24 4.52 29.28C4.33333 30.32 4.24 31.2533 4.24 32.08C4.24 33.2533 4.68 33.9067 5.56 34.04C6.36 33.9333 7.12 33.7333 7.84 33.44C8.56 33.1467 9.2 32.7733 9.76 32.32C9.92 32.56 10.0133 32.76 10.04 32.92C9.88 33.16 9.6 33.44 9.2 33.76C8.82667 34.08 8.41333 34.3867 7.96 34.68C7.50667 35 7.06667 35.2667 6.64 35.48C6.21333 35.6933 5.89333 35.8133 5.68 35.84C5.01333 35.8133 4.34667 35.6667 3.68 35.4C3.01333 35.1333 2.4 34.8 1.84 34.4C1.30667 34 0.866667 33.56 0.52 33.08C0.173333 32.5733 0 32.08 0 31.6C0 30.96 0.0800002 30.16 0.24 29.2C0.426667 28.2133 0.68 27.1467 1 26C1.32 24.8533 1.69333 23.6533 2.12 22.4C2.54667 21.1467 3.01333 19.9067 3.52 18.68H1.24ZM26.2225 33.12C25.7158 32.6933 25.3692 32.16 25.1825 31.52C25.0225 30.88 24.9425 30.3333 24.9425 29.88C24.9425 29.32 25.0092 28.84 25.1425 28.44C25.0358 28.44 24.7958 28.6533 24.4225 29.08C24.0492 29.5067 23.6358 30.0133 23.1825 30.6C22.7558 31.1867 22.3292 31.76 21.9025 32.32C21.4758 32.88 21.1558 33.2933 20.9425 33.56C20.5958 33.9333 20.2625 34.2267 19.9425 34.44C19.6492 34.6533 19.4092 34.7733 19.2225 34.8C18.7958 34.7733 18.3425 34.68 17.8625 34.52C17.4092 34.3867 16.9692 34.1867 16.5425 33.92C16.1425 33.6533 15.7825 33.3333 15.4625 32.96C15.1692 32.5867 14.9692 32.16 14.8625 31.68C14.8625 30.9333 14.8758 30.32 14.9025 29.84C14.9558 29.36 15.0492 28.84 15.1825 28.28C15.4225 27.2667 15.7692 26.12 16.2225 24.84C16.7025 23.56 17.2492 22.3067 17.8625 21.08C18.4758 19.8267 19.1558 18.6667 19.9025 17.6C20.6758 16.5067 21.4892 15.6533 22.3425 15.04C22.5825 15.04 22.8625 15.0667 23.1825 15.12C23.5025 15.1467 23.8225 15.2133 24.1425 15.32C24.4892 15.4267 24.8092 15.56 25.1025 15.72C25.4225 15.8533 25.6892 16.04 25.9025 16.28C25.6625 16.5467 25.0492 17.44 24.0625 18.96C23.1025 20.48 22.0225 22.6667 20.8225 25.52C20.6892 25.8133 20.5292 26.24 20.3425 26.8C20.1558 27.36 19.9692 27.9467 19.7825 28.56C19.5958 29.1733 19.4358 29.7733 19.3025 30.36C19.1958 30.9467 19.1425 31.4133 19.1425 31.76C19.1425 31.9733 19.1692 32.1333 19.2225 32.24C19.3025 32.3467 19.3692 32.4267 19.4225 32.48C19.8225 32.32 20.3292 31.88 20.9425 31.16C21.5558 30.44 22.4092 29.3333 23.5025 27.84C23.7692 27.4667 24.0758 27.04 24.4225 26.56C24.7958 26.08 25.1692 25.5733 25.5425 25.04C25.9158 24.48 26.2625 23.9067 26.5825 23.32C26.9292 22.7333 27.2092 22.1467 27.4225 21.56C27.5292 21.24 27.6625 20.8667 27.8225 20.44C28.0092 19.9867 28.2225 19.52 28.4625 19.04C28.7292 18.56 29.0225 18.08 29.3425 17.6C29.6892 17.0933 30.0892 16.6267 30.5425 16.2C30.8892 16.2 31.2625 16.24 31.6625 16.32C32.0625 16.4 32.4358 16.5067 32.7825 16.64C33.1558 16.7467 33.4758 16.88 33.7425 17.04C34.0092 17.1733 34.2092 17.32 34.3425 17.48C33.8625 18.6533 33.3292 19.8133 32.7425 20.96C32.1558 22.1067 31.6092 23.24 31.1025 24.36C30.5958 25.4533 30.1692 26.5467 29.8225 27.64C29.4758 28.7333 29.3025 29.8 29.3025 30.84C29.3025 31.4 29.3425 31.8933 29.4225 32.32C29.5292 32.72 29.6358 33.0667 29.7425 33.36C29.8492 33.6267 29.9425 33.8533 30.0225 34.04C30.1292 34.2267 30.1825 34.3867 30.1825 34.52C30.1825 34.5467 30.1558 34.5867 30.1025 34.64C30.0758 34.6667 30.0492 34.68 30.0225 34.68C29.8358 34.68 29.5958 34.64 29.3025 34.56C29.0092 34.48 28.6758 34.36 28.3025 34.2C27.9558 34.0667 27.5958 33.9067 27.2225 33.72C26.8758 33.5333 26.5425 33.3333 26.2225 33.12ZM36.5481 33.2C36.6815 32.4267 36.9081 31.4133 37.2281 30.16C37.5748 28.88 37.9748 27.5333 38.4281 26.12C38.8815 24.68 39.3615 23.24 39.8681 21.8C40.3748 20.36 40.8681 19.0667 41.3481 17.92C41.6948 17.0933 42.0015 16.4533 42.2681 16C42.5348 15.52 42.8281 15.12 43.1481 14.8C43.5215 14.8533 43.9081 14.9467 44.3081 15.08C44.7081 15.2133 45.0948 15.3733 45.4681 15.56C45.8415 15.7467 46.1748 15.9467 46.4681 16.16C46.7615 16.3467 46.9881 16.5333 47.1481 16.72C46.4281 17.5733 45.7881 18.5467 45.2281 19.64C44.6948 20.7333 44.1481 22.1333 43.5881 23.84C45.0281 22.56 46.2948 21.3333 47.3881 20.16C48.5081 18.9867 49.5481 17.68 50.5081 16.24C50.6681 16.1067 50.9481 16.04 51.3481 16.04C51.7215 16.04 52.0815 16.1067 52.4281 16.24C52.7748 16.3467 53.0148 16.5067 53.1481 16.72C52.6681 18 52.4281 19.2667 52.4281 20.52C52.4281 21.6933 52.6015 22.5733 52.9481 23.16C52.9215 23.32 52.7348 23.6267 52.3881 24.08C52.0681 24.5333 51.7081 24.96 51.3081 25.36C50.5881 24.9867 49.9481 24.48 49.3881 23.84C48.8281 23.1733 48.4148 22.4533 48.1481 21.68C46.8948 22.56 45.8281 23.4267 44.9481 24.28C44.0681 25.1067 43.3081 26.04 42.6681 27.08C42.0548 28.0933 41.5215 29.2667 41.0681 30.6C40.6415 31.9333 40.2281 33.52 39.8281 35.36C39.5881 35.3333 39.2948 35.24 38.9481 35.08C38.6281 34.9467 38.2948 34.7733 37.9481 34.56C37.6281 34.3467 37.3348 34.12 37.0681 33.88C36.8015 33.64 36.6281 33.4133 36.5481 33.2ZM56.0009 31.44C56.0009 30.2667 56.2809 28.6267 56.8409 26.52C57.4009 24.3867 58.1876 21.9067 59.2009 19.08C60.8543 14.5733 62.4009 10.8267 63.8409 7.84C65.3076 4.82667 66.7343 2.48 68.1209 0.799998C68.4409 0.853331 68.8276 0.986664 69.2809 1.2C69.7609 1.41333 70.2276 1.65333 70.6809 1.92C71.1343 2.16 71.5343 2.41333 71.8809 2.68C72.2543 2.94666 72.4943 3.16 72.6009 3.32C70.5209 5.77333 68.6943 8.41333 67.1209 11.24C65.5476 14.0667 64.1076 17.3067 62.8009 20.96C61.6809 24.1067 60.8276 26.9467 60.2409 29.48C59.6543 31.9867 59.3609 34.08 59.3609 35.76C59.3609 36.2133 59.3609 36.4933 59.3609 36.6C59.3609 36.7067 59.3743 36.8133 59.4009 36.92C59.0276 36.8667 58.7076 36.7733 58.4409 36.64C58.1743 36.5067 58.0009 36.3467 57.9209 36.16C57.8676 36.0267 57.7209 35.8267 57.4809 35.56C57.2409 35.32 57.0276 35.1333 56.8409 35C56.6009 34.84 56.4009 34.4267 56.2409 33.76C56.0809 33.0667 56.0009 32.2933 56.0009 31.44ZM82.9341 27.8C82.3207 29.7467 81.7074 31.52 81.0941 33.12C80.4807 34.72 79.8274 36.1867 79.1341 37.52C78.4407 38.88 77.6941 40.12 76.8941 41.24C76.0941 42.3867 75.2141 43.4667 74.2541 44.48C73.0274 45.76 71.7607 46.7333 70.4541 47.4C69.1474 48.0933 67.8407 48.44 66.5341 48.44C65.8674 48.44 65.2007 48.36 64.5341 48.2C63.8941 48.0667 63.2941 47.8667 62.7341 47.6C62.1474 47.36 61.6407 47.0667 61.2141 46.72C60.7607 46.4 60.4407 46.0533 60.2541 45.68C60.2541 45.36 60.4407 45.08 60.8141 44.84C61.1341 45.1333 61.4007 45.36 61.6141 45.52C61.8274 45.68 62.0407 45.8133 62.2541 45.92C62.4407 46.0267 62.6541 46.0933 62.8941 46.12C63.1074 46.1467 63.3607 46.16 63.6541 46.16C65.1741 46.16 66.6541 45.7067 68.0941 44.8C69.5607 43.92 70.9341 42.6533 72.2141 41C73.5207 39.3733 74.7074 37.3867 75.7741 35.04C76.8407 32.72 77.7474 30.12 78.4941 27.24C78.1474 27.7733 77.7207 28.4267 77.2141 29.2C76.7074 29.9733 76.1474 30.7467 75.5341 31.52C74.9207 32.2667 74.2807 32.9467 73.6141 33.56C72.9741 34.1733 72.3474 34.5867 71.7341 34.8C71.3074 34.7733 70.8541 34.68 70.3741 34.52C69.9207 34.3867 69.4807 34.1867 69.0541 33.92C68.6541 33.6533 68.2941 33.3333 67.9741 32.96C67.6541 32.5867 67.4407 32.16 67.3341 31.68C67.3341 30.9067 67.3607 30.2933 67.4141 29.84C67.4674 29.36 67.5607 28.84 67.6941 28.28C67.9341 27.2667 68.2807 26.12 68.7341 24.84C69.2141 23.56 69.7607 22.3067 70.3741 21.08C71.0141 19.8267 71.7074 18.6667 72.4541 17.6C73.2274 16.5067 74.0274 15.6533 74.8541 15.04C75.0674 15.04 75.3341 15.0667 75.6541 15.12C75.9741 15.1467 76.3074 15.2133 76.6541 15.32C77.0007 15.4267 77.3341 15.56 77.6541 15.72C77.9741 15.8533 78.2541 16.04 78.4941 16.28C78.2007 16.5467 77.5607 17.44 76.5741 18.96C75.5874 20.48 74.4941 22.6667 73.2941 25.52C73.1607 25.8133 73.0007 26.24 72.8141 26.8C72.6274 27.36 72.4407 27.9467 72.2541 28.56C72.0941 29.1733 71.9474 29.7733 71.8141 30.36C71.6807 30.9467 71.6141 31.4133 71.6141 31.76C71.6141 31.9733 71.6407 32.1333 71.6941 32.24C71.7741 32.3467 71.8407 32.4267 71.8941 32.48C72.3741 32.4 73.0141 32.0133 73.8141 31.32C74.6141 30.6 75.5207 29.4933 76.5341 28C77.1741 27.04 77.7607 26.0933 78.2941 25.16C78.8274 24.2 79.3474 23.24 79.8541 22.28C80.3874 21.32 80.9341 20.3333 81.4941 19.32C82.0541 18.3067 82.6541 17.2667 83.2941 16.2C83.6407 16.2 84.0141 16.24 84.4141 16.32C84.8141 16.4 85.2007 16.5067 85.5741 16.64C85.9474 16.7467 86.2674 16.88 86.5341 17.04C86.8274 17.1733 87.0407 17.32 87.1741 17.48C86.3474 19.24 85.5741 20.96 84.8541 22.64C84.1341 24.32 83.4941 26.04 82.9341 27.8ZM93.5444 34.28C94.771 33.4533 95.971 32.4 97.1444 31.12C98.3177 29.8133 99.3844 28.4133 100.344 26.92C101.304 25.4 102.118 23.8267 102.784 22.2C103.451 20.5733 103.904 19.0133 104.144 17.52C104.144 17.2 103.971 16.9867 103.624 16.88C103.251 16.88 102.731 17.2133 102.064 17.88C101.424 18.52 100.704 19.3467 99.9044 20.36C99.131 21.3733 98.331 22.5067 97.5044 23.76C96.7044 25.0133 95.971 26.2667 95.3044 27.52C94.6377 28.7467 94.0644 29.9067 93.5844 31C93.131 32.0667 92.8777 32.9333 92.8244 33.6C92.5577 33.6 92.331 33.3333 92.1444 32.8C92.091 32.6667 91.9977 32.5333 91.8644 32.4C91.731 32.24 91.5177 32.0533 91.2244 31.84C91.091 31.7333 90.9577 31.6133 90.8244 31.48C90.691 31.32 90.5977 31.1867 90.5444 31.08C90.4377 30.8667 90.3844 30.52 90.3844 30.04C90.3844 28.4667 90.5844 26.6933 90.9844 24.72C91.3844 22.7467 91.9044 20.7333 92.5444 18.68C93.211 16.6267 93.9844 14.6133 94.8644 12.64C95.7444 10.64 96.651 8.81333 97.5844 7.16C98.5444 5.50667 99.5044 4.10667 100.464 2.96C101.424 1.81333 102.331 1.05333 103.184 0.679997C103.451 0.759998 103.771 0.893332 104.144 1.08C104.518 1.26667 104.891 1.48 105.264 1.72C105.638 1.96 105.984 2.2 106.304 2.44C106.651 2.68 106.904 2.89333 107.064 3.08C104.131 5.45333 101.584 8.50667 99.4244 12.24C97.291 15.9467 95.5444 20.3333 94.1844 25.4C94.931 24.0133 95.771 22.68 96.7044 21.4C97.6377 20.0933 98.5577 18.9467 99.4644 17.96C100.398 16.9733 101.278 16.1867 102.104 15.6C102.958 15.0133 103.664 14.72 104.224 14.72C104.651 14.8267 105.064 15.0133 105.464 15.28C105.864 15.5467 106.224 15.88 106.544 16.28C106.864 16.6533 107.131 17.0667 107.344 17.52C107.558 17.9467 107.691 18.4 107.744 18.88C107.718 20 107.518 21.2 107.144 22.48C106.798 23.7333 106.318 24.9733 105.704 26.2C105.118 27.4267 104.438 28.6 103.664 29.72C102.918 30.84 102.118 31.8267 101.264 32.68C100.438 33.5067 99.5977 34.1733 98.7444 34.68C97.9177 35.1867 97.131 35.44 96.3844 35.44C96.0644 35.44 95.731 35.4 95.3844 35.32C95.0644 35.2667 94.7577 35.1733 94.4644 35.04C94.1977 34.9333 93.971 34.8133 93.7844 34.68C93.6244 34.5467 93.5444 34.4133 93.5444 34.28ZM124.932 17.84C125.198 17.84 125.505 17.8933 125.852 18C126.225 18.08 126.558 18.2 126.852 18.36C127.145 18.4933 127.385 18.64 127.572 18.8C127.785 18.96 127.892 19.1067 127.892 19.24C127.358 20.36 126.865 21.4933 126.412 22.64C125.958 23.76 125.572 24.84 125.252 25.88C124.932 26.92 124.678 27.8933 124.492 28.8C124.332 29.7067 124.252 30.4933 124.252 31.16C124.252 31.9067 124.332 32.5333 124.492 33.04C124.652 33.52 124.918 33.8667 125.292 34.08C124.972 34.2933 124.558 34.4667 124.052 34.6C123.545 34.7333 123.092 34.8 122.692 34.8C121.252 34.8 120.532 33.8133 120.532 31.84C120.532 30.32 121.038 28.24 122.052 25.6C121.518 26.8267 120.905 27.9867 120.212 29.08C119.518 30.1467 118.812 31.0933 118.092 31.92C117.372 32.7467 116.638 33.4267 115.892 33.96C115.172 34.4667 114.505 34.7733 113.892 34.88C112.905 34.8267 112.105 34.36 111.492 33.48C110.878 32.5733 110.572 31.4267 110.572 30.04C110.572 28.5467 110.892 26.9733 111.532 25.32C112.172 23.6667 112.985 22.1333 113.972 20.72C114.985 19.3067 116.078 18.1333 117.252 17.2C118.425 16.24 119.558 15.7333 120.652 15.68C120.918 15.76 121.212 15.92 121.532 16.16C121.878 16.4 122.198 16.68 122.492 17C122.812 17.32 123.078 17.6533 123.292 18C123.505 18.32 123.625 18.6 123.652 18.84C122.585 19 121.478 19.52 120.332 20.4C119.212 21.28 118.185 22.3467 117.252 23.6C116.345 24.8267 115.598 26.1467 115.012 27.56C114.425 28.9733 114.132 30.2933 114.132 31.52C114.132 32.0267 114.318 32.3467 114.692 32.48C115.465 32.32 116.358 31.6667 117.372 30.52C118.385 29.3467 119.612 27.5467 121.052 25.12C121.318 24.64 121.612 24.1067 121.932 23.52C122.278 22.9333 122.625 22.32 122.972 21.68C123.318 21.04 123.652 20.4 123.972 19.76C124.318 19.0933 124.638 18.4533 124.932 17.84ZM132.204 31.32C132.204 31.08 132.218 30.7867 132.244 30.44C132.298 30.0667 132.378 29.5867 132.484 29C132.591 28.3867 132.724 27.6533 132.884 26.8C133.071 25.9467 133.298 24.92 133.564 23.72C133.618 23.4533 133.738 23.0267 133.924 22.44C134.111 21.8533 134.351 21.24 134.644 20.6C134.964 19.9333 135.338 19.2933 135.764 18.68C136.218 18.0667 136.751 17.6133 137.364 17.32C137.818 17.4267 138.418 17.7067 139.164 18.16C139.911 18.5867 140.551 19.1867 141.084 19.96C140.471 20.6533 139.951 21.3467 139.524 22.04C139.124 22.7333 138.751 23.4533 138.404 24.2C138.084 24.9467 137.778 25.72 137.484 26.52C137.218 27.32 136.911 28.16 136.564 29.04C136.271 29.7867 136.004 30.56 135.764 31.36C135.524 32.1333 135.391 32.8133 135.364 33.4C135.364 33.88 135.351 34.2133 135.324 34.4C135.324 34.6133 135.258 34.72 135.124 34.72C135.018 34.72 134.804 34.6533 134.484 34.52C134.164 34.3867 133.831 34.1867 133.484 33.92C133.164 33.6267 132.871 33.2667 132.604 32.84C132.338 32.4133 132.204 31.9067 132.204 31.32ZM139.844 13.96C139.844 13.8 139.884 13.56 139.964 13.24C139.831 13.1067 139.711 12.9067 139.604 12.64C139.524 12.3733 139.484 12.1333 139.484 11.92C139.484 11.68 139.511 11.36 139.564 10.96C139.644 10.5333 139.738 10.08 139.844 9.6C139.951 9.12 140.084 8.62667 140.244 8.12C140.404 7.58666 140.564 7.10666 140.724 6.68C141.044 6.68 141.431 6.77333 141.884 6.96C142.364 7.12 142.844 7.34667 143.324 7.64C143.804 7.90666 144.244 8.21333 144.644 8.56C145.044 8.88 145.351 9.18667 145.564 9.48C145.271 9.77333 144.884 10.1867 144.404 10.72C143.924 11.2267 143.458 11.7733 143.004 12.36C142.551 12.92 142.138 13.4533 141.764 13.96C141.391 14.4667 141.151 14.8267 141.044 15.04C140.724 14.9867 140.444 14.8533 140.204 14.64C139.964 14.4 139.844 14.1733 139.844 13.96ZM144.257 26.96C144.257 25.44 144.564 23.9733 145.177 22.56C145.817 21.12 146.644 19.8533 147.657 18.76C148.697 17.64 149.871 16.7467 151.177 16.08C152.511 15.3867 153.884 15.04 155.297 15.04C156.684 15.04 157.751 15.3867 158.497 16.08C159.244 16.7733 159.617 17.76 159.617 19.04C159.617 19.6533 159.524 20.2533 159.337 20.84C159.177 21.4 158.951 21.9067 158.657 22.36C158.391 22.8133 158.071 23.1867 157.697 23.48C157.324 23.7467 156.951 23.88 156.577 23.88C156.257 23.88 155.924 23.7867 155.577 23.6C155.257 23.3867 154.991 23.12 154.777 22.8C156.564 21.1733 157.457 19.6933 157.457 18.36C157.457 17.5867 157.151 17.2 156.537 17.2C156.004 17.2 155.337 17.4533 154.537 17.96C153.737 18.4667 152.964 19.1333 152.217 19.96C151.071 21.24 150.191 22.6667 149.577 24.24C148.991 25.7867 148.697 27.4133 148.697 29.12C148.697 31.28 149.177 32.5733 150.137 33C150.537 32.9467 151.004 32.8267 151.537 32.64C152.071 32.4533 152.644 32.2133 153.257 31.92C153.871 31.6 154.497 31.24 155.137 30.84C155.804 30.44 156.444 30.0133 157.057 29.56C157.164 29.64 157.257 29.76 157.337 29.92C157.417 30.08 157.457 30.2267 157.457 30.36C157.004 30.92 156.484 31.4667 155.897 32C155.311 32.5333 154.697 33.0267 154.057 33.48C153.417 33.9067 152.791 34.2667 152.177 34.56C151.591 34.88 151.071 35.08 150.617 35.16C149.737 35.08 148.911 34.8 148.137 34.32C147.364 33.8667 146.684 33.2667 146.097 32.52C145.537 31.7733 145.084 30.92 144.737 29.96C144.417 29 144.257 28 144.257 26.96Z" fill="black"/>
</svg>
