<svg width="18" height="18" viewBox="0 0 18 18" fill="none" xmlns="http://www.w3.org/2000/svg">
<path d="M6.42971 0.628052H3.15627C1.46513 0.628052 0.62793 1.46525 0.62793 3.15639V6.43821C0.62793 8.16283 1.46513 9.00003 3.15627 8.95817H6.43808C8.16271 9.00003 8.99991 8.16283 8.95805 6.42983V3.15639C8.99991 1.46525 8.16271 0.628052 6.42971 0.628052ZM6.49669 7.12471C5.92739 7.12471 5.37484 6.90704 4.91438 6.52193C4.39532 6.89866 3.76742 7.12471 3.08929 7.12471C2.74604 7.12471 2.46139 6.84006 2.46139 6.49681C2.46139 6.15356 2.74604 5.86891 3.08929 5.86891C3.94323 5.86891 4.65485 5.28287 4.91438 4.47916H3.08929C2.74604 4.47916 2.46139 4.19452 2.46139 3.85126C2.46139 3.50801 2.74604 3.22337 3.08929 3.22337H4.16928C4.20276 2.90523 4.4623 2.65407 4.7888 2.65407C5.11531 2.65407 5.37484 2.90523 5.40833 3.22337H5.626H5.64274H5.65949H6.48831C6.83157 3.22337 7.11621 3.50801 7.11621 3.85126C7.11621 4.19452 6.83994 4.47916 6.48831 4.47916H6.21204C6.13669 4.88102 5.97762 5.25776 5.76833 5.60101C5.99437 5.76845 6.23716 5.86891 6.49669 5.86891C6.83994 5.86891 7.12459 6.15356 7.12459 6.49681C7.12459 6.84006 6.83994 7.12471 6.49669 7.12471Z" fill="#292D32"/>
<path d="M6.48828 18C2.91345 18 0 15.0866 0 11.5117C0 11.1685 0.284647 10.8839 0.627898 10.8839C0.971149 10.8839 1.2558 11.1685 1.2558 11.5117C1.2558 13.9899 2.98042 16.0661 5.29946 16.6103L5.07341 16.2335C4.8976 15.9322 4.98969 15.547 5.29109 15.3712C5.5841 15.1954 5.97759 15.2875 6.1534 15.5889L7.03246 17.054C7.14966 17.2466 7.14966 17.4893 7.04083 17.6819C6.92362 17.8745 6.71432 18 6.48828 18Z" fill="#292D32"/>
<path d="M17.3706 7.11618C17.0273 7.11618 16.7427 6.83153 16.7427 6.48828C16.7427 4.01018 15.018 1.93393 12.699 1.38975L12.925 1.76649C13.1008 2.06788 13.0088 2.45299 12.7074 2.6288C12.4143 2.80461 12.0209 2.71252 11.8451 2.41113L10.966 0.946034C10.8488 0.753478 10.8488 0.510691 10.9576 0.318135C11.0748 0.12558 11.2841 0 11.5102 0C15.085 0 17.9985 2.91345 17.9985 6.48828C17.9985 6.83153 17.7138 7.11618 17.3706 7.11618Z" fill="#292D32"/>
<path d="M13.1187 8.87537C10.7746 8.87537 8.86578 10.7758 8.86578 13.1283C8.86578 15.4725 10.7662 17.3813 13.1187 17.3813C15.4629 17.3813 17.3717 15.4809 17.3717 13.1283C17.3717 10.7758 15.4713 8.87537 13.1187 8.87537ZM15.195 15.146C14.8852 15.2967 14.5085 15.1795 14.3494 14.8613L14.2071 14.5767H12.0388L11.8964 14.8613C11.7876 15.079 11.5616 15.2046 11.3355 15.2046C11.2434 15.2046 11.143 15.1795 11.0592 15.1376C10.7495 14.9785 10.6239 14.6018 10.7746 14.292L12.5662 10.7172C12.675 10.5079 12.8927 10.3739 13.1271 10.3739C13.3615 10.3739 13.5792 10.5079 13.688 10.7256L15.4796 14.3004C15.6303 14.6102 15.5048 14.9869 15.195 15.146Z" fill="#292D32"/>
<path d="M12.6657 13.3202H13.5783L13.1178 12.4076L12.6657 13.3202Z" fill="#292D32"/>
</svg>
