<svg width="18" height="18" viewBox="0 0 18 18" fill="none" xmlns="http://www.w3.org/2000/svg">
<path d="M10.2128 16.1953C9.50045 16.0111 8.79427 15.6468 8.10363 15.1185C7.43027 14.6013 6.78159 13.9627 6.17627 13.2345C5.57889 12.5016 5.02303 11.7121 4.51967 10.8757C4.02587 10.0284 3.6049 9.15948 3.25817 8.28961C2.91165 7.39289 2.6723 6.52388 2.55252 5.71271C2.42687 4.8462 2.45861 4.04731 2.64284 3.33493C2.77001 2.8432 2.97892 2.39952 3.26163 2.00854C3.5539 1.6066 3.9452 1.26388 4.42269 1.004C5.03202 0.650417 5.64875 0.55433 6.24134 0.707586C6.48721 0.771171 6.7247 0.893124 6.91296 1.04942C7.12948 1.22649 7.2935 1.4505 7.3861 1.71658L8.31555 4.15631C8.40066 4.37337 8.45587 4.57598 8.47957 4.77043C8.51261 4.98075 8.50783 5.18129 8.46055 5.36411C8.39859 5.60367 8.26892 5.81899 8.07947 6.0054C7.94089 6.15116 7.74861 6.29648 7.51851 6.43203L6.97406 6.76876C6.97548 6.7893 6.97852 6.80354 6.98156 6.81778C7.02297 6.96973 7.11558 7.23581 7.31754 7.65124C7.53514 8.08416 7.74199 8.48068 7.95535 8.85197C8.23274 9.31381 8.46665 9.68369 8.69469 9.99825C8.97577 10.3938 9.1699 10.6054 9.29066 10.7106L9.2699 10.7389L9.84749 10.404C10.0935 10.2591 10.3201 10.163 10.5274 10.1157C10.9295 9.99107 11.3806 10.0674 11.7746 10.3643C11.9206 10.4761 12.0727 10.6163 12.2276 10.7976L13.9358 12.8267C14.1283 13.0446 14.2463 13.2903 14.2852 13.556C14.3178 13.82 14.3049 14.0521 14.2478 14.2727C14.1696 14.5753 14.022 14.86 13.8162 15.1094C13.6105 15.3589 13.383 15.5624 13.1162 15.7355C12.6542 16.0397 12.19 16.2223 11.6888 16.2878C11.2081 16.3518 10.7109 16.3241 10.2128 16.1953ZM5.99678 1.65322C5.65005 1.56355 5.28941 1.6317 4.90224 1.85441C4.54214 2.0505 4.26378 2.29462 4.05455 2.58353C3.83738 2.87711 3.68466 3.20754 3.58847 3.57949C3.43685 4.16578 3.41087 4.83838 3.5187 5.56575C3.62957 6.30737 3.84739 7.10354 4.17239 7.92744C4.49738 8.75133 4.89661 9.57425 5.36237 10.374C5.83138 11.1612 6.36224 11.9172 6.92995 12.6089C7.48201 13.283 8.07743 13.8674 8.6959 14.3367C9.6549 15.0757 10.6359 15.4438 11.5577 15.3123C11.9134 15.263 12.2493 15.1347 12.5828 14.9115C12.7685 14.7914 12.926 14.6505 13.0728 14.4733C13.1892 14.3352 13.2694 14.1811 13.3118 14.0172C13.3379 13.9163 13.345 13.8105 13.3239 13.684C13.3148 13.6413 13.2949 13.5622 13.1963 13.4493L11.4881 11.4202C11.3849 11.2993 11.2877 11.2069 11.1919 11.1351C11.0679 11.0425 11.0258 10.971 10.7773 11.048C10.6349 11.0784 10.4969 11.1437 10.3382 11.2371L9.73684 11.586C9.42903 11.762 9.0361 11.7209 8.77382 11.5388L8.62317 11.4191C8.40057 11.2136 8.1534 10.9209 7.89264 10.5509C7.65688 10.2141 7.40732 9.82674 7.11124 9.33316C6.88385 8.93806 6.66136 8.52405 6.43603 8.06895C6.22941 7.64559 6.09169 7.29386 6.02289 7.01376L5.99615 6.80507C5.99582 6.65029 6.00441 6.56507 6.02723 6.47681C6.08593 6.24986 6.22005 6.06932 6.41842 5.95247L7.0184 5.58302C7.1771 5.48955 7.30264 5.39422 7.3934 5.30335C7.46503 5.23444 7.50187 5.16999 7.51818 5.10695C7.53122 5.05651 7.53187 4.97597 7.51991 4.89217C7.50187 4.77989 7.46187 4.64848 7.40459 4.50587L6.47678 2.05984C6.43656 1.95528 6.37721 1.87267 6.29406 1.80408C6.20461 1.73387 6.10396 1.68094 5.99678 1.65322ZM9.26826 10.7452L9.05653 11.1478L9.34087 10.7505C9.31098 10.7361 9.28413 10.7358 9.26826 10.7452Z" fill="black"/>
</svg>
